<svg width="400" height="107" viewBox="0 0 400 107" fill="none" xmlns="http://www.w3.org/2000/svg">
<g clip-path="url(#clip0_837_2)">
<rect width="400" height="107" fill="white"/>
<path d="M399.5 1H380L399.5 34V1Z" fill="#0072FE"/>
<rect width="400" height="108" fill="#0052FF"/>
<path d="M197.991 60.7453L160 -1H236.489L276 64.3774L248.646 109H169.118L197.991 60.7453Z" fill="#0073FC"/>
<path d="M40 61L0 1V107.5H11L40 61Z" fill="#0072FE"/>
<path d="M398.5 108V96L390 108H398.5Z" fill="#0072FE"/>
<path d="M135.198 60.3779L98 -4H151.786L192 60.3779L166.866 106H106.545L135.198 60.3779Z" fill="#0073FC"/>
<path d="M281.198 65.3779L244 1H297.786L338 65.3779L312.866 111H252.545L281.198 65.3779Z" fill="#0073FC"/>
</g>
<defs>
<clipPath id="clip0_837_2">
<rect width="400" height="107" fill="white"/>
</clipPath>
</defs>
</svg>
